
nColumns=19
nRows=62
DataType=double
version=3
OpenSimVersion=4.4-2022-10-11-798caa840
endheader
time	ground_force_calcn_r_vx	ground_force_calcn_r_vy	ground_force_calcn_r_vz	ground_force_calcn_r_px	ground_force_calcn_r_py	ground_force_calcn_r_pz	ground_force_calcn_r_mx	ground_force_calcn_r_my	ground_force_calcn_r_mz	ground_force_calcn_l_vx	ground_force_calcn_l_vy	ground_force_calcn_l_vz	ground_force_calcn_l_px	ground_force_calcn_l_py	ground_force_calcn_l_pz	ground_force_calcn_l_mx	ground_force_calcn_l_my	ground_force_calcn_l_mz
1.16	-57.7592	75.81789999999999	-17.9669	-0.115986	0	-0.43926	0.0553365	-0.0726377	0.0172133	0	0	0	0	0	0	0	0	0
1.17	-262.997	404.075	-67.1434	-0.139141	0	-0.448785	-0.897539	1.379	-0.229143	0	0	0	0	0	0	0	0	0
1.18	-234.772	776.407	-86.4623	-0.186411	0	-0.460789	-1.4516	4.80053	-0.534596	-69.8874	81.5569	13.8547	-0.0901255	0	-0.739938	0.402018	-0.469145	-0.079697
1.19	-81.7008	1514.28	-42.8416	-0.238672	0	-0.475177	0.0285343	-0.528868	0.0149626	-217.531	292.499	41.2459	-0.109465	0	-0.75759	-0.0156898	0.021097	0.00297493
1.2	-127.101	1804.82	28.436	-0.246817	0	-0.481722	0.545951	-7.75244	-0.122144	-167.868	376.563	65.47239999999999	-0.130002	0	-0.757982	0.122635	-0.275094	-0.0478302
1.21	-333.097	1244.98	-5.58546	-0.220903	0	-0.477863	2.17369	-8.124359999999999	0.036449	-31.5642	497.485	58.8301	-0.174166	0	-0.751403	-0.0579103	0.912728	0.107935
1.22	-421.79	805.6799999999999	-65.48820000000001	-0.17914	0	-0.467907	2.12483	-4.05873	0.329907	-8.35572	640.186	35.1885	-0.197718	0	-0.743901	-0.0361903	2.77278	0.152409
1.23	-344.174	697.278	-87.27119999999999	-0.165815	0	-0.463464	0.959712	-1.94433	0.243351	-93.96259999999999	572.822	23.9578	-0.184732	0	-0.741722	-0.531012	3.2372	0.135393
1.24	-261.272	731.216	-101.004	-0.172354	0	-0.462993	0.390838	-1.09383	0.151092	-189.908	443.731	17.2112	-0.15001	0	-0.741437	-1.08629	2.53817	0.09844940000000001
1.25	-223.385	791.631	-98.40309999999999	-0.178858	0	-0.464049	0.484108	-1.71558	0.213254	-196.128	374.658	2.34047	-0.128236	0	-0.73991	-1.42807	2.72799	0.0170417
1.26	-176.202	843.576	-82.1892	-0.186544	0	-0.465987	0.666299	-3.18994	0.310794	-158.452	362.724	-3.43053	-0.128125	0	-0.738723	-1.51872	3.47663	-0.0328809
1.27	-129.786	872.524	-73.75790000000001	-0.193734	0	-0.467145	0.5913890000000001	-3.97577	0.336087	-137.453	401.352	13.0542	-0.139336	0	-0.73993	-1.17926	3.44334	0.111996
1.28	-112.973	857.2910000000001	-72.0415	-0.196414	0	-0.466782	0.553117	-4.1973	0.352715	-125.185	466.261	37.3597	-0.15373	0	-0.741999	-0.850631	3.16824	0.253859
1.29	-111.703	805.8390000000001	-69.26730000000001	-0.195435	0	-0.465684	0.614492	-4.43301	0.381047	-100.812	511.466	55.1527	-0.165943	0	-0.7438900000000001	-0.672876	3.4138	0.368119
1.3	-107.614	751.97	-69.9153	-0.193114	0	-0.464438	0.638135	-4.45908	0.414589	-81.32680000000001	522.256	61.9598	-0.172478	0	-0.745409	-0.64516	4.14302	0.491523
1.31	-105.613	718.278	-71.7484	-0.190411	0	-0.463716	0.642505	-4.36972	0.436489	-79.7055	513.966	61.7598	-0.172547	0	-0.74726	-0.764192	4.92774	0.592134
1.32	-104.117	699.878	-70.00709999999999	-0.188288	0	-0.463792	0.6631590000000001	-4.4578	0.445903	-82.7672	493.055	63.3026	-0.168682	0	-0.749946	-0.864133	5.14775	0.6609120000000001
1.33	-93.7864	694.598	-65.104	-0.188617	0	-0.464833	0.641788	-4.75319	0.445512	-80.53360000000001	463.942	67.40009999999999	-0.163724	0	-0.75291	-0.8252699999999999	4.75426	0.690684
1.34	-76.09869999999999	702.506	-58.6601	-0.19158	0	-0.466711	0.57684	-5.3251	0.444652	-78.4224	439.381	69.872	-0.159241	0	-0.755383	-0.784983	4.39806	0.699397
1.35	-58.8358	715.97	-51.3221	-0.195342	0	-0.468838	0.5061639999999999	-6.15948	0.441523	-78.248	426.673	68.5226	-0.156607	0	-0.756603	-0.827638	4.51297	0.724772
1.36	-45.9555	723.462	-44.9261	-0.198041	0	-0.470542	0.435711	-6.85925	0.42595	-76.2744	420.804	64.1874	-0.155839	0	-0.7568009999999999	-0.9000860000000001	4.96575	0.757451
1.37	-39.2318	720.794	-42.0371	-0.198966	0	-0.471565	0.387917	-7.12709	0.415656	-72.45189999999999	416.583	60.1194	-0.155665	0	-0.756767	-0.930737	5.35154	0.772311
1.38	-37.057	714.846	-41.912	-0.198829	0	-0.472353	0.359797	-6.94063	0.406935	-68.0967	412.626	58.3955	-0.155471	0	-0.756686	-0.910083	5.51456	0.780431
1.39	-34.3151	712.883	-42.8799	-0.198824	0	-0.47322	0.316466	-6.57446	0.395454	-64.3096	408.745	57.9291	-0.155356	0	-0.756533	-0.869493	5.52641	0.783227
1.4	-29.4247	715.556	-43.9429	-0.199283	0	-0.474152	0.251661	-6.11996	0.375831	-61.9673	405.395	57.3173	-0.155342	0	-0.7563260000000001	-0.849807	5.5595	0.786038
1.41	-23.2828	720.4299999999999	-44.2526	-0.199895	0	-0.474909	0.181241	-5.60806	0.344476	-60.0054	404.401	57.1622	-0.15608	0	-0.755888	-0.848668	5.71952	0.808456
1.42	-17.6456	724.65	-43.6299	-0.200283	0	-0.47561	0.125303	-5.14582	0.309821	-56.4707	405.055	58.3161	-0.157525	0	-0.755349	-0.817121	5.86108	0.843824
1.43	-14.4514	723.849	-42.3843	-0.200071	0	-0.4763	0.09430620000000001	-4.72365	0.276588	-52.121	406.377	59.4864	-0.159044	0	-0.754766	-0.76619	5.97384	0.874463
1.44	-13.9712	714.966	-41.0515	-0.198946	0	-0.476855	0.08379060000000001	-4.28793	0.246202	-47.8297	408.499	59.3934	-0.160352	0	-0.75425	-0.716525	6.11963	0.889759
1.45	-15.4793	700.653	-40.0362	-0.197001	0	-0.477465	0.08544	-3.86734	0.220985	-43.4096	410.178	58.7282	-0.1612	0	-0.753929	-0.652261	6.16323	0.882435
1.46	-17.3219	684.605	-38.899	-0.19482	0	-0.478232	0.0883753	-3.49282	0.198461	-39.1789	410.956	59.1197	-0.161788	0	-0.754059	-0.580054	6.08431	0.875283
1.47	-18.4552	667.985	-37.5432	-0.192606	0	-0.479125	0.0874963	-3.16693	0.177993	-35.0437	411.078	61.1482	-0.162269	0	-0.754412	-0.502103	5.88988	0.876124
1.48	-18.61	652.208	-35.1472	-0.190602	0	-0.48029	0.0839374	-2.94168	0.158526	-31.5395	411.179	63.478	-0.162694	0	-0.754555	-0.428614	5.58781	0.862649
1.49	-15.5077	638.224	-31.6789	-0.189385	0	-0.481665	0.06924429999999999	-2.84977	0.141451	-28.6535	410.498	64.9216	-0.163001	0	-0.754686	-0.372021	5.32967	0.842905
1.5	-10.6083	623.976	-29.7652	-0.188721	0	-0.483026	0.0474302	-2.78984	0.133082	-26.0454	407.375	65.15989999999999	-0.162943	0	-0.754837	-0.329796	5.15833	0.825078
1.51	-8.90042	608.588	-29.2346	-0.188137	0	-0.48442	0.0400852	-2.74092	0.131665	-24.329	401.907	64.67959999999999	-0.162639	0	-0.754964	-0.301165	4.97514	0.800658
1.52	-9.54064	595.1420000000001	-27.4516	-0.187886	0	-0.485748	0.0460912	-2.87515	0.13262	-23.5901	395.464	63.8223	-0.162256	0	-0.754887	-0.285846	4.79192	0.773349
1.53	-8.87401	584.992	-25.2307	-0.188236	0	-0.486912	0.0461709	-3.04367	0.131273	-22.1194	389.508	62.2082	-0.162598	0	-0.754406	-0.270405	4.76165	0.760482
1.54	-5.98881	577.152	-24.2022	-0.188869	0	-0.487822	0.0318313	-3.06764	0.128638	-18.7563	384.795	60.7133	-0.163835	0	-0.7538859999999999	-0.232577	4.77142	0.752839
1.55	-2.08355	571.343	-24.232	-0.189326	0	-0.48855	0.0107901	-2.95883	0.125491	-13.9107	381.025	60.0095	-0.165471	0	-0.753328	-0.173006	4.73879	0.7463340000000001
1.56	0.322755	567.114	-24.7905	-0.189387	0	-0.489093	-0.00158687	-2.7883	0.121886	-8.542	378.159	58.9689	-0.167262	0	-0.752817	-0.10746	4.75731	0.741839
1.57	1.24075	564.124	-25.0496	-0.188886	0	-0.489403	-0.00583623	-2.65353	0.117829	-3.61001	375.608	57.4846	-0.169196	0	-0.752116	-0.0460482	4.79115	0.733256
1.58	-0.319299	560.937	-26.2201	-0.187308	0	-0.489241	0.00138758	-2.43767	0.113945	0.0535183	373.55	56.5513	-0.17124	0	-0.751609	0.000678209	4.7338	0.716645
1.59	-5.19604	553.178	-29.8669	-0.184505	0	-0.488658	0.0183823	-1.957	0.105661	2.97887	372.495	56.5364	-0.173212	0	-0.7515230000000001	0.0366187	4.57901	0.69499
1.6	-10.4388	543.727	-32.9235	-0.18178	0	-0.488106	0.0297346	-1.54878	0.09378110000000001	5.97222	372.287	56.9271	-0.175206	0	-0.751283	0.0712904	4.44399	0.679539
1.61	-13.0342	538.987	-33.7715	-0.180215	0	-0.487836	0.0347904	-1.43864	0.0901415	9.06936	374.257	57.0825	-0.177566	0	-0.750837	0.106237	4.38396	0.668652
1.62	-13.1406	541.7670000000001	-34.729	-0.17937	0	-0.487735	0.0360977	-1.48825	0.09540179999999999	12.6265	380.373	56.5585	-0.180386	0	-0.750406	0.145769	4.3913	0.652953
1.63	-13.4416	550.796	-36.6363	-0.178012	0	-0.487277	0.0368725	-1.51092	0.100499	15.98	389.613	56.8607	-0.18282	0	-0.750182	0.175615	4.28173	0.624882
1.64	-16.6041	560.854	-39.3358	-0.175246	0	-0.486208	0.0420434	-1.42014	0.0996025	18.5455	400.167	59.2876	-0.184733	0	-0.750167	0.187795	4.05218	0.600359
1.65	-23.0081	568.639	-42.8859	-0.171234	0	-0.484613	0.0507409	-1.25404	0.0945781	20.6931	413.499	63.1056	-0.186473	0	-0.750067	0.191073	3.81811	0.582696
1.66	-30.6141	574.408	-45.844	-0.16684	0	-0.482851	0.0653903	-1.22691	0.09792090000000001	22.2757	431.595	67.42189999999999	-0.187446	0	-0.749979	0.189305	3.66783	0.572971
1.67	-37.7032	579.841	-47.4529	-0.162942	0	-0.481246	0.09593649999999999	-1.47542	0.120745	19.7794	450.565	71.7413	-0.186656	0	-0.7500599999999999	0.156326	3.56101	0.567003
1.68	-44.5911	586.1609999999999	-49.194	-0.159512	0	-0.479778	0.137998	-1.81402	0.152243	11.7199	464.771	76.1952	-0.184051	0	-0.750294	0.0860812	3.41369	0.5596449999999999
1.69	-51.6575	593.525	-51.5899	-0.156493	0	-0.47819	0.184358	-2.1182	0.184117	2.71885	473.662	80.79770000000001	-0.180687	0	-0.750478	0.0186486	3.24885	0.554191
1.7	-57.9547	601.194	-53.6742	-0.15393	0	-0.4765	0.231868	-2.40528	0.214742	-4.95072	477.113	84.569	-0.177054	0	-0.750609	-0.0306278	2.95168	0.523189
1.71	-63.6053	609.722	-54.9004	-0.152067	0	-0.474835	0.283676	-2.71932	0.244852	-13.8433	474.292	87.0895	-0.172757	0	-0.750882	-0.07361189999999999	2.52206	0.463101
1.72	-68.85890000000001	619.126	-55.8847	-0.150905	0	-0.473229	0.334545	-3.00797	0.271511	-22.8079	463.304	87.4119	-0.167021	0	-0.751341	-0.0960057	1.9502	0.367945
1.73	-73.4239	627.912	-57.1276	-0.150146	0	-0.471758	0.373523	-3.19433	0.29062	-30.4069	440.244	84.0891	-0.158605	0	-0.75181	-0.089479	1.29551	0.24745
1.74	-77.5147	634.626	-58.8716	-0.149507	0	-0.470215	0.398011	-3.25859	0.302285	-37.0308	411.595	78.0168	-0.148082	0	-0.7521679999999999	-0.0555105	0.616995	0.11695
1.75	-81.0896	637.277	-60.7705	-0.148751	0	-0.468615	0.399488	-3.13954	0.299385	-38.1461	385.221	71.1311	-0.138148	0	-0.751937	0.00460031	-0.0464565	-0.008578209999999999
1.76	-83.7145	634.4930000000001	-61.9102	-0.147832	0	-0.46684	0.37798	-2.8648	0.279531	-32.757	357.349	63.7661	-0.129331	0	-0.751122	0.0602074	-0.656807	-0.117202
1.77	-85.6985	625.229	-61.381	-0.146675	0	-0.465042	0.344196	-2.51115	0.246529	-24.5148	322.076	54.9504	-0.121501	0	-0.749977	0.07781	-1.02227	-0.174413
